<svg width="16" height="32" viewBox="0 0 16 32" fill="none" xmlns="http://www.w3.org/2000/svg">
<path d="M0.146443 31.0918C-0.0488186 31.287 -0.0488186 31.6036 0.146443 31.7989C0.341706 31.9941 0.658288 31.9941 0.853551 31.7989L0.146443 31.0918ZM15.5 16.4453L15.8536 16.7989C15.9473 16.7051 16 16.5779 16 16.4453C16 16.3127 15.9473 16.1855 15.8536 16.0918L15.5 16.4453ZM0.853554 1.09176C0.658291 0.896498 0.341709 0.896498 0.146446 1.09176C-0.0488159 1.28702 -0.048816 1.60361 0.146446 1.79887L0.853554 1.09176ZM0.853551 31.7989L15.8536 16.7989L15.1464 16.0918L0.146443 31.0918L0.853551 31.7989ZM15.8536 16.0918L0.853554 1.09176L0.146446 1.79887L15.1464 16.7989L15.8536 16.0918Z" fill="black"/>
</svg>
